HIERARCHY
ROOT Hips
{
	OFFSET 0.00000 0.00000 0.00000
	CHANNELS 6 Xposition Yposition Zposition Zrotation Yrotation Xrotation 
	JOINT LHipJoint
	{
		OFFSET 0 0 0
		CHANNELS 3 Zrotation Yrotation Xrotation
		JOINT LeftHip
		{
			OFFSET 1.59715 -1.91394 0.36268
			CHANNELS 3 Zrotation Yrotation Xrotation
			JOINT LeftKnee
			{
				OFFSET 2.53886 -6.97546 0.00000
				CHANNELS 3 Zrotation Yrotation Xrotation
				JOINT LeftAnkle
				{
					OFFSET 2.77084 -7.61284 0.00000
					CHANNELS 3 Zrotation Yrotation Xrotation
					JOINT LeftToe
					{
						OFFSET 0.19855 -0.54550 2.06057
						CHANNELS 3 Zrotation Yrotation Xrotation
						End Site
						{
							OFFSET 0.00000 -0.00000 1.07182
						}
					}
				}
			}
		}
	}
	JOINT RHipJoint
	{
		OFFSET 0 0 0
		CHANNELS 3 Zrotation Yrotation Xrotation
		JOINT RightHip
		{
			OFFSET -1.71086 -1.91394 0.36268
			CHANNELS 3 Zrotation Yrotation Xrotation
			JOINT RightKnee
			{
				OFFSET -2.59448 -7.12828 0.00000
				CHANNELS 3 Zrotation Yrotation Xrotation
				JOINT RightAnkle
				{
					OFFSET -2.80237 -7.69945 0.00000
					CHANNELS 3 Zrotation Yrotation Xrotation
					JOINT RightToe
					{
						OFFSET -0.18280 -0.50224 2.06614
						CHANNELS 3 Zrotation Yrotation Xrotation
						End Site
						{
							OFFSET -0.00000 -0.00000 1.07055
						}
					}
				}
			}
		}
	}
	JOINT lowerback
	{
		OFFSET 0 0 0
		CHANNELS 3 Zrotation Yrotation Xrotation
		JOINT Chest
		{
			OFFSET 0.04838 1.91536 -0.09733
			CHANNELS 3 Zrotation Yrotation Xrotation
			JOINT Chest2
			{
				OFFSET 0.04097 1.92183 -0.02751
				CHANNELS 3 Zrotation Yrotation Xrotation
				JOINT lowerneck
				{
					OFFSET 0 0 0
					CHANNELS 3 Zrotation Yrotation Xrotation
					JOINT Neck
					{
						OFFSET 0.18766 3.12816 0.13727
						CHANNELS 3 Zrotation Yrotation Xrotation
						JOINT Head
						{
							OFFSET -0.11178 3.16074 0.02732
							CHANNELS 3 Zrotation Yrotation Xrotation
							End Site
							{
								OFFSET 0.47685 1.04189 0.57898
							}
						}
					}
				}
				JOINT LeftCollar
				{
					OFFSET 0 0 0
					CHANNELS 3 Zrotation Yrotation Xrotation
					JOINT LeftShoulder
					{
						OFFSET 3.49325 0.99827 -0.10681
CHANNELS 3 Zrotation Xrotation Yrotation
						JOINT LeftElbow
						{
OFFSET 0 -5.128420 0.000000
CHANNELS 3 Zrotation Xrotation Yrotation
							JOINT LeftWrist
							{
OFFSET 0 -3.473960 0.000000
CHANNELS 3 Zrotation Xrotation Yrotation
								JOINT lhand
								{
									OFFSET 0 0 0
CHANNELS 3 Zrotation Xrotation Yrotation
									JOINT LFingers
									{
OFFSET 0 -0.728610 0.000000
CHANNELS 3 Zrotation Xrotation Yrotation
										End Site
										{
OFFSET 0 -0.587420 0.000000
										}
									}
								}
								JOINT LThumb
								{
OFFSET 0 0.000000 0.000000
CHANNELS 3 Zrotation Xrotation Yrotation
									End Site
									{
OFFSET 0 -0.596390 0.596390
									}
								}
							}
						}
					}
				}
				JOINT RightCollar
				{
					OFFSET 0 0 0
					CHANNELS 3 Zrotation Yrotation Xrotation
					JOINT RightShoulder
					{
						OFFSET -3.23261 1.50670 -0.18692
CHANNELS 3 Zrotation Xrotation Yrotation
						JOINT RightElbow
						{
OFFSET 0 -5.484770 -0.000000
CHANNELS 3 Zrotation Xrotation Yrotation
							JOINT RightWrist
							{
OFFSET 0 -3.478560 0.000000
CHANNELS 3 Zrotation Xrotation Yrotation
								JOINT rhand
								{
									OFFSET 0 0 0
CHANNELS 3 Zrotation Xrotation Yrotation
									JOINT RFingers
									{
OFFSET 0 -0.709970 0.000000
CHANNELS 3 Zrotation Xrotation Yrotation
										End Site
										{
OFFSET 0 -0.572400 0.000000
										}
									}
								}
								JOINT RThumb
								{
OFFSET 0 0.000000 0.000000
CHANNELS 3 Zrotation Xrotation Yrotation
									End Site
									{
OFFSET 0 -0.581140 0.581140
									}
								}
							}
						}
					}
				}
			}
		}
	}
}
MOTION
Frames: 11
Frame Time: 0.008333333333333333
0.477325 17.660704 -8.030177 -364.204823 -8.728865 2.383591 0.000000 0.000000 0.000000 -5.772331 -11.581263 -31.912803 11.770598 18.291945 65.259758 -0.426162 -18.851973 -9.115435 0.498158 -4.524804 -12.558116 0.000000 0.000000 0.000000 23.493330 9.320856 -13.327646 -4.708736 -13.048089 39.548936 -1.764165 6.496871 -23.865251 -0.034304 -1.195930 3.288034 6.093916 -0.089646 11.174267 4.120932 0.775970 2.016892 0.767176 0.318356 -4.134119 -2.359842 4.167005 -6.597771 -10.091710 10.273503 37.248329 -2.313881 2.878291 14.495643 0.000000 0.000000 0.000000 -5.473786 6.878015 -5.754317 21.928654 -32.896315 6.547046 13.018543 19.040429 -29.004366 0.000000 0.000000 0.000000 -7.125000 0.000000 0.000000 -20.034112 58.481190 6.779416 0.000000 0.000000 0.000000 -7.432186 4.037529 10.402987 -19.123879 -29.572226 -5.091900 -31.672352 -17.286156 -15.713518 0.000000 0.000000 0.000000 7.125000 0.000000 0.000000 -2.646036 11.702176 -2.056605
1.606962 17.714778 -7.349837 -363.944546 -17.208408 2.566177 0.000000 0.000000 0.000000 4.269942 -22.679765 -22.986727 7.704538 15.896166 51.488931 0.000753 -11.032596 -7.748154 0.007492 -0.529679 -1.455583 0.000000 0.000000 0.000000 18.671279 13.750208 -9.229075 -3.955723 -12.101226 36.091107 -1.450528 10.256630 -21.679563 -0.203891 -2.889387 7.972155 5.912990 0.487924 11.850846 3.398620 1.572228 1.477271 -0.013112 0.678165 -5.036931 -1.446792 5.564670 -6.176325 -9.742081 11.833220 36.855048 -2.117877 3.709101 14.329757 0.000000 0.000000 0.000000 -6.059858 7.811208 0.454391 20.799993 -31.594136 5.944802 12.783142 16.708658 -30.707886 0.000000 0.000000 0.000000 -7.125000 0.000000 0.000000 -21.555676 60.010741 8.121123 0.000000 0.000000 0.000000 -8.009668 4.748644 13.349382 -21.105287 -31.950989 -6.105597 -32.229055 -18.052063 -16.058345 0.000000 0.000000 0.000000 7.125000 0.000000 0.000000 -2.968150 11.207080 -2.337898
3.071357 17.500720 -6.409403 -364.299755 -26.614993 3.280838 0.000000 0.000000 0.000000 5.594415 -31.067915 -7.974040 3.336638 11.220487 33.027679 -0.236329 -18.238854 -10.547279 0.635916 -5.080326 -14.142332 0.000000 0.000000 0.000000 12.687543 19.518192 -8.116918 -3.714933 -11.771128 34.926992 -1.327807 11.207894 -20.899428 -0.049374 1.394463 -3.835497 5.631385 0.932522 11.200579 3.492688 2.052781 1.620572 0.181255 0.929013 -4.516868 -0.794375 7.004937 -6.116821 -9.782018 13.694232 36.820943 -1.992958 4.546557 14.488651 0.000000 0.000000 0.000000 -6.428138 7.583342 2.291832 20.048864 -30.701191 5.556255 12.657158 17.812314 -30.299849 0.000000 0.000000 0.000000 -7.125000 0.000000 0.000000 -21.367691 59.604890 7.837700 0.000000 0.000000 0.000000 -9.446533 3.606460 13.244769 -21.824690 -32.778344 -6.490686 -31.921885 -18.883256 -15.597983 0.000000 0.000000 0.000000 7.125000 0.000000 0.000000 -2.825386 11.790278 -2.191143
4.896506 17.475447 -5.448650 -360.574219 -33.624991 3.364457 0.000000 0.000000 0.000000 -5.678384 -17.284061 -11.430406 3.529298 11.506224 34.006734 1.287249 -15.296131 -21.499540 0.411951 -4.118525 -11.410663 0.000000 0.000000 0.000000 1.346818 26.272747 -10.671560 -3.684458 -11.728137 34.776946 -0.670164 6.317745 -14.618198 -0.001263 0.085485 -0.234964 2.800675 1.167759 10.500180 2.702343 1.969653 1.381729 0.962302 0.933099 -4.447402 -1.288883 6.831601 -6.352363 -9.298534 13.264394 37.395726 -1.791764 4.256824 14.698806 0.000000 0.000000 0.000000 -5.796754 5.758527 -0.950839 19.497448 -30.032134 5.277545 13.587062 17.861116 -30.365041 0.000000 0.000000 0.000000 -7.125000 0.000000 0.000000 -20.442864 59.880198 7.615815 0.000000 0.000000 0.000000 -9.388749 2.999110 10.100808 -23.756776 -34.905719 -7.567001 -32.603933 -18.669461 -14.199201 0.000000 0.000000 0.000000 7.125000 0.000000 0.000000 -3.454569 13.284133 -2.573167
6.340763 17.718797 -4.810902 -359.583541 -38.301353 3.564492 0.000000 0.000000 0.000000 -11.964760 -14.486177 -13.000581 3.423153 11.350453 33.471010 1.204853 -14.196486 -20.625818 0.062104 -1.604737 -4.414544 0.000000 0.000000 0.000000 2.465593 19.724165 -19.554513 -6.081742 -14.505663 45.306237 -0.682198 -6.573877 -19.359422 -0.450936 -4.306819 11.941616 0.399055 0.806641 10.325759 2.835877 1.236423 0.966014 2.560051 0.618416 -4.840391 -2.105166 6.634816 -5.397204 -8.941993 12.708191 37.285798 -1.637417 3.936590 14.295338 0.000000 0.000000 0.000000 -2.103981 6.453564 -6.860869 21.427560 -32.323848 6.277104 13.308193 16.500482 -28.866319 0.000000 0.000000 0.000000 -7.125000 0.000000 0.000000 -19.638319 58.415092 6.608480 0.000000 0.000000 0.000000 -6.954294 4.953067 11.166008 -24.732407 -35.929243 -8.132378 -32.326591 -18.463398 -15.497165 0.000000 0.000000 0.000000 7.125000 0.000000 0.000000 -3.105408 11.834262 -2.406101
7.402873 17.802478 -4.329460 -360.225080 -44.200558 3.923223 0.000000 0.000000 0.000000 -15.743171 -13.237791 -13.857348 3.696755 11.745528 34.837587 1.455523 -9.999096 -21.691044 0.011486 -0.692355 -1.902651 0.000000 0.000000 0.000000 14.714835 7.639233 -26.251136 -9.665865 -17.217292 58.365162 -1.226698 -1.158148 -21.380422 -0.004958 0.424221 -1.165644 0.926412 1.548606 9.123269 1.558343 2.205869 0.803652 0.817803 1.080156 -4.306496 -1.018315 5.496765 -6.207263 -7.535324 10.329204 37.829730 -1.571629 3.132869 14.508140 0.000000 0.000000 0.000000 2.819336 6.337762 -5.368668 24.890280 -36.091395 8.225325 16.038265 15.074463 -30.161753 0.000000 0.000000 0.000000 -7.125000 0.000000 0.000000 -17.683360 60.263493 6.707548 0.000000 0.000000 0.000000 -2.535010 7.073410 13.082021 -24.726320 -35.922913 -8.128756 -32.248548 -16.155241 -16.022582 0.000000 0.000000 0.000000 7.125000 0.000000 0.000000 -2.985580 11.244559 -2.349399
8.253422 17.708120 -3.923550 -360.008447 -50.976878 3.711891 0.000000 0.000000 0.000000 -18.917422 -10.502377 -16.447966 4.237869 12.470386 37.416906 1.552605 -9.133869 -22.334633 0.254639 3.229719 8.920292 0.000000 0.000000 0.000000 26.206572 -2.578249 -24.797363 -9.649017 -17.207368 58.308108 -1.438483 3.869719 -21.745277 -0.000481 0.093643 -0.257198 0.392089 1.704512 8.326196 1.990908 2.386535 0.100338 1.556223 1.187526 -4.635669 -2.907035 5.126825 -6.129090 -7.418474 9.966796 38.194320 -1.274383 2.643916 14.548461 0.000000 0.000000 0.000000 1.630818 8.377133 -2.664288 25.621421 -36.832421 8.659661 16.550234 14.644465 -30.405403 0.000000 0.000000 0.000000 -7.125000 0.000000 0.000000 -17.310770 60.617560 6.707765 0.000000 0.000000 0.000000 -3.068882 8.180437 15.359797 -25.118646 -36.323645 -8.360640 -32.204492 -16.786447 -16.051281 0.000000 0.000000 0.000000 7.125000 0.000000 0.000000 -2.952892 11.219823 -2.324811
9.017184 17.638158 -3.541303 -356.865850 -61.375985 1.283816 0.000000 0.000000 0.000000 -23.348978 -5.278286 -20.200128 4.581693 12.896579 38.982576 1.572308 -8.323247 -22.449830 1.704383 8.218409 23.380964 0.000000 0.000000 0.000000 27.377742 -1.020839 -15.999225 -5.791067 -14.222631 44.137011 -2.179210 -5.903816 -30.485217 -1.088916 -6.631825 18.629228 1.538407 2.737170 7.577162 1.704747 3.822177 0.459604 0.492099 1.874967 -3.783714 -4.038261 4.709424 -7.154139 -8.696914 9.920025 37.577416 -1.584696 2.253074 14.549845 0.000000 0.000000 0.000000 -2.509727 9.022875 -1.286226 25.688059 -36.898985 8.699655 15.999469 15.348120 -29.592765 0.000000 0.000000 0.000000 -7.125000 0.000000 0.000000 -17.316178 59.711828 6.334430 0.000000 0.000000 0.000000 -5.114538 5.804823 19.146356 -24.528450 -35.717966 -8.013038 -32.770129 -17.535612 -16.176825 0.000000 0.000000 0.000000 7.125000 0.000000 0.000000 -3.306916 10.970377 -2.621680
9.851378 17.646526 -3.288402 -358.618397 -70.282982 3.977409 0.000000 0.000000 0.000000 -22.604546 -6.669119 -26.996231 6.177742 14.598442 45.691082 1.160235 -4.368798 -19.379012 0.037010 -1.241490 -3.413640 0.000000 0.000000 0.000000 25.997676 8.458354 -15.368069 -5.291999 -13.705207 42.069319 -1.952141 -7.646374 -30.051289 -1.082339 -6.612477 18.572259 5.190026 2.891367 8.533611 2.110929 4.350447 1.123933 -1.198451 2.080113 -3.387505 -4.066056 4.026169 -7.802392 -9.984441 9.084476 35.680493 -2.150888 1.788789 13.860245 0.000000 0.000000 0.000000 -7.163902 7.195204 0.044420 24.089295 -35.258508 7.758034 17.725993 16.281145 -29.409045 0.000000 0.000000 0.000000 -7.125000 0.000000 0.000000 -15.333894 59.937988 5.670016 0.000000 0.000000 0.000000 -5.976017 -1.226436 18.940499 -21.539155 -32.452343 -6.336801 -33.581507 -14.700172 -15.412597 0.000000 0.000000 0.000000 7.125000 0.000000 0.000000 -3.943469 11.703002 -3.069097
10.379822 17.744599 -3.194119 -362.881601 -71.689785 7.562659 0.000000 0.000000 0.000000 -16.767075 -10.793042 -32.532162 8.167478 16.241052 53.163573 0.670366 -12.055519 -15.764014 0.588955 -4.912897 -13.660456 0.000000 0.000000 0.000000 26.524321 10.898343 -15.041562 -5.037279 -13.425685 40.983579 -1.837898 -8.779002 -30.038687 -1.193586 -6.932430 19.515437 5.094489 1.836311 10.821207 3.425788 3.094312 1.604986 0.274800 1.429582 -4.306507 -4.859031 2.071403 -8.956012 -7.850031 5.699266 36.172117 -1.616308 0.403853 14.029267 0.000000 0.000000 0.000000 -7.102997 8.002460 -6.793436 23.747530 -34.896071 7.561657 14.135981 19.339407 -27.938775 0.000000 0.000000 0.000000 -7.125000 0.000000 0.000000 -18.157537 57.718821 5.779843 0.000000 0.000000 0.000000 -5.795055 -2.560188 19.334788 -22.535228 -33.576651 -6.879525 -33.210633 -15.984023 -15.858443 0.000000 0.000000 0.000000 7.125000 0.000000 0.000000 -3.638719 11.255127 -2.864483
10.462249 17.834014 -2.892502 -366.849349 -75.421553 11.505302 0.000000 0.000000 0.000000 -12.227335 -14.545072 -30.116608 6.005947 14.433413 45.004261 0.812273 -2.129357 -16.441653 0.084215 -1.871484 -5.150729 0.000000 0.000000 0.000000 25.818967 11.366282 -13.957960 -4.610056 -12.930792 39.109822 -1.846002 -7.035725 -28.999006 -0.640448 -5.119197 14.248953 4.485310 1.841276 10.980873 3.711877 3.028281 1.818565 0.920170 1.405373 -4.220711 -5.095943 1.011411 -9.896020 -6.696714 3.822226 36.957832 -1.402775 -0.375310 14.501361 0.000000 0.000000 0.000000 -5.433479 8.754712 -7.546195 23.957505 -35.119327 7.682158 14.800466 16.862080 -28.689520 0.000000 0.000000 0.000000 -7.125000 0.000000 0.000000 -17.961709 58.578337 6.089001 0.000000 0.000000 0.000000 -5.001334 -1.603835 20.673336 -22.579428 -33.625698 -6.904060 -32.735387 -16.214867 -15.944962 0.000000 0.000000 0.000000 7.125000 0.000000 0.000000 -3.315318 11.244148 -2.609674
